<?xml version="1.0" encoding="utf-8"?>
<!-- Generator: Adobe Illustrator 16.0.0, SVG Export Plug-In . SVG Version: 6.00 Build 0)  -->
<!DOCTYPE svg PUBLIC "-//W3C//DTD SVG 1.1//EN" "http://www.w3.org/Graphics/SVG/1.1/DTD/svg11.dtd">
<svg version="1.1" id="Capa_1" xmlns="http://www.w3.org/2000/svg" xmlns:xlink="http://www.w3.org/1999/xlink" x="0px" y="0px"
	 width="644.891px" height="577.471px" viewBox="115.109 -56.392 644.891 577.471"
	 enable-background="new 115.109 -56.392 644.891 577.471" xml:space="preserve">
<g>
	<g>
		<path d="M721.791,279.925c-23.881-23.88-56.717-38.209-93.135-38.209c-4.179,0-8.357,0-12.537,0.597
			c-12.537-27.463-32.238-50.149-56.119-66.866c-27.463-19.104-60.299-29.851-94.926-29.851c-41.193,0-78.806,14.925-108.656,40
			c-26.269,22.687-45.373,53.134-53.731,88.955c-26.866,2.985-50.746,14.925-68.657,32.836C213.134,328.283,200,356.94,200,389.179
			c0,31.643,13.134,60.896,34.03,81.791c20.896,20.299,49.552,33.434,81.791,33.434h312.835c36.418,0,69.254-14.926,93.135-38.209
			C745.672,442.313,760,409.478,760,373.06S745.074,303.807,721.791,279.925z M697.91,443.508
			c-18.507,18.507-43.582,29.253-71.045,29.253H315.821c-23.284,0-44.776-9.552-59.702-25.074
			c-15.522-15.522-25.074-36.418-25.074-59.701c0-6.023,0.692-11.914,1.96-17.618c0.019-0.149,0.051-0.296,0.103-0.436
			c3.56-15.606,11.553-29.756,22.415-41.051c15.522-15.522,36.418-25.074,59.701-25.074c2.388,0,4.776-0.598,6.567-1.791h0.597
			c3.582-2.389,5.97-5.971,6.567-10.747c4.776-33.433,22.09-62.089,45.97-82.388c23.88-20.299,54.925-32.836,88.358-32.836
			c28.657,0,55.522,8.955,77.612,24.478c17.91,12.537,32.836,28.657,42.985,48.358c-3.582,1.194-7.164,2.985-10.746,4.179
			c-16.717,7.761-31.643,18.508-44.18,32.836c-5.373,6.567-4.776,16.12,1.194,21.493c6.567,5.373,16.119,4.775,21.492-1.195
			c9.553-10.746,20.896-19.104,34.03-25.074c12.537-5.97,26.865-8.955,41.193-8.955c28.061,0,53.135,11.344,71.045,29.254
			c18.508,18.508,29.254,43.582,29.254,71.045C727.164,400.522,715.821,425.597,697.91,443.508z"/>
	</g>
</g>
<g>
	<g>
		<path d="M233.015,370.367c0.025-0.205,0.073-0.405,0.162-0.59c0.027-0.15,0.064-0.301,0.128-0.44
			c0.008-0.092,0.01-0.186,0.032-0.275c0.007-0.052,0.02-0.102,0.031-0.152l-4.228,5.644c0.177,0.136,0.35,0.276,0.527,0.412
			l3.302-4.416C232.98,370.487,232.998,370.428,233.015,370.367z"/>
		<path d="M274.187,314.689c0.122-0.077,0.151-0.092,0.091-0.046c0.155-0.119,0.325-0.207,0.499-0.277
			c0.119-0.104,0.247-0.191,0.387-0.256l28.586-38.237c-0.146-0.111-0.287-0.227-0.432-0.338l-29.468,39.336
			C273.961,314.811,274.077,314.755,274.187,314.689z"/>
		<path d="M256.634,142.237c-2.566-19.08-1.69-38.052,1.656-55.642c3.758-18.788,10.547-36.27,20.444-51.883
			c4.221-6.853,1.891-15.681-4.962-19.9c-4.306-2.278-8.946-2.796-13.284-1.07c-45.963,19.323-83.639,53.529-108.248,95.69
			c-23.562,41.448-34.692,90.365-27.823,141.432c8.228,61.167,40.393,113.401,86.232,148.37l18.49-24.681
			c-39.196-30.112-67.356-75.255-74.495-128.328c-5.964-44.332,3.192-86.699,24.065-122.644
			c14.377-24.787,33.772-46.25,57.288-62.553c-1.976,6.55-3.951,13.101-5.29,20.137c-4.577,21.184-5.076,42.96-2.056,65.407
			c7.145,53.115,35.418,98.846,74.666,128.963l17.28-23.067C286.854,226.726,262.749,187.691,256.634,142.237z"/>
	</g>
</g>
</svg>
