<?xml version="1.0" encoding="iso-8859-1"?>
<!-- Generator: Adobe Illustrator 19.0.0, SVG Export Plug-In . SVG Version: 6.00 Build 0)  -->
<svg version="1.1" id="Capa_1" xmlns="http://www.w3.org/2000/svg" xmlns:xlink="http://www.w3.org/1999/xlink" x="0px" y="0px"
	 viewBox="0 0 412.8 412.8" style="enable-background:new 0 0 412.8 412.8;" xml:space="preserve">
<g>
	<g>
		<path d="M391.8,232.4c-2-5.2-7.6-8.4-12.8-6.4l-74.4,25.6l-34.8-20c-0.4-0.4-0.8-0.4-1.2-0.8l40-16.4c2.8-1.2,4.8-3.2,6-6.4
			c1.6-5.2-1.2-11.2-6.4-12.8L271,182.8l34-19.6l73.2,24.4c5.2,2,11.2-1.2,12.8-6.4c2-5.2-1.2-11.2-6.4-12.8L327,148.8l54-31.2
			c4.8-2.8,6.4-9.2,3.6-14c-2.8-4.8-9.2-6.4-14-3.6l-54,31.2l11.6-59.6c1.2-5.6-2.4-10.8-8-12c-5.6-1.2-10.8,2.4-12,8L293,144.8
			l-34.8,20c-0.4,0.4-0.8,0.4-1.2,0.8l6-43.2c0.4-2.8-0.4-5.6-2.4-8c-3.6-4.4-10.4-4.8-14.4-0.8l-29.2,26v-39.2l59.2-51.6
			c4.4-3.6,4.8-10,0.8-14.4c-3.6-4.4-10-4.8-14.4-0.8l-45.6,40V10.4C217,4.8,212.6,0,206.6,0c-5.6,0-10.4,4.4-10.4,10.4v62.4
			l-45.6-39.6c-4.4-3.6-10.8-3.2-14.4,0.8c-3.6,4.4-3.2,10.8,0.8,14.4l59.2,51.6v40.4c0,0.4,0,0.8,0,1.2l-34.4-26.4
			c-2.4-1.6-5.2-2.4-8.4-2c-5.6,1.2-9.2,6.4-8,12l8,38.4l-34-19.6l-15.2-77.2c-1.2-5.6-6.4-9.2-12-8c-5.6,1.2-9.2,6.4-8,12
			l11.6,59.6l-54-31.2c-4.8-2.8-11.2-1.2-14,3.6c-2.8,4.8-1.2,11.2,3.6,14l54,31.2l-57.6,19.6c-5.2,2-8.4,7.6-6.4,12.8
			c2,5.2,7.6,8.4,12.8,6.4l74.4-25.6l34.8,20c0.4,0.4,0.8,0.4,1.2,0.8l-40,16.4c-2.8,1.2-4.8,3.2-6,6.4C97,210,99.8,216,105,217.6
			l37.2,12.4l-34,19.6L33.8,224c-5.2-2-11.2,1.2-12.8,6.4c-2,5.2,1.2,11.2,6.4,12.8L85,262.8L31,294c-4.8,2.8-6.4,9.2-3.6,14
			c2.8,4.8,9.2,6.4,14,3.6l54-31.2L83.8,340c-1.2,5.6,2.4,10.8,8,12c5.6,1.2,10.8-2.4,12-8l15.2-77.2l34.8-20
			c0.4-0.4,0.8-0.4,1.2-0.8l-4.8,44.4c-0.4,2.8,0.4,5.6,2.4,8c3.6,4.4,10.4,4.8,14.4,0.8l29.2-26v39.2L137,364
			c-4.4,3.6-4.8,10-0.8,14.4c3.6,4.4,10,4.8,14.4,0.8l45.6-40v63.2c0,5.6,4.4,10.4,10.4,10.4c5.6,0,10.4-4.4,10.4-10.4V340l45.6,40
			c4.4,3.6,10.8,3.2,14.4-0.8c3.6-4.4,3.2-10.8-0.8-14.4l-59.2-52v-40.4c0-0.4,0-0.8,0-1.2l34.4,26.4c2.4,1.6,5.2,2.4,8.4,2
			c5.6-1.2,9.2-6.4,8-12l-8-38.4l34,19.6L309,346c1.2,5.6,6.4,9.2,12,8c5.6-1.2,9.2-6.4,8-12l-11.6-59.6l54,31.2
			c4.8,2.8,11.2,1.2,14-3.6c2.8-4.8,1.2-11.2-3.6-14l-54-31.2l57.6-19.6C390.6,243.2,393.8,237.6,391.8,232.4z M241,218.4
			c-4.8,2-7.2,6.8-6,11.6l6.8,34L213,242.4c-4-3.2-9.6-2.8-13.2,0.8L174.2,266l4.8-36c0.8-5.2-2.4-10-7.2-11.2L139.4,208l33.2-13.6
			c4.8-2,7.2-6.8,6-11.6l-6.8-34l28.8,22c4,3.2,9.6,2.8,13.2-0.8l25.6-22.8l-4.8,36c-0.8,5.2,2.4,10,7.2,11.2l32.4,10.4L241,218.4z"
			/>
	</g>
</g>
<g>
</g>
<g>
</g>
<g>
</g>
<g>
</g>
<g>
</g>
<g>
</g>
<g>
</g>
<g>
</g>
<g>
</g>
<g>
</g>
<g>
</g>
<g>
</g>
<g>
</g>
<g>
</g>
<g>
</g>
</svg>
